<?xml version="1.0" encoding="UTF-8"?>
<svg id="Layer_1" xmlns="http://www.w3.org/2000/svg" version="1.1" viewBox="0 0 841.89 595.28">
  <!-- Generator: Adobe Illustrator 29.6.1, SVG Export Plug-In . SVG Version: 2.1.1 Build 9)  -->
  <defs>
    <style>
      .st0 {
        fill: #3a5e45;
      }

      .st1 {
        fill: #d0b063;
      }

      .st2 {
        fill: #7e312a;
      }

      .st3 {
        fill: #ddba69;
      }

      .st4 {
        fill: #581708;
      }
    </style>
  </defs>
  <polygon class="st0" points="555.73 249.17 601.35 171.29 601.35 421.94 555.73 421.94 555.73 249.17"/>
  <polygon class="st3" points="407.56 202.62 463.79 244.47 463.79 160.78 407.56 202.62"/>
  <polygon class="st3" points="439.36 228.26 276.7 107.22 274.88 78.72 452.98 209.96 439.36 228.26"/>
  <polygon class="st0" points="430.3 270.79 241.92 127.05 241.23 82.28 463.79 245.63 430.3 270.79"/>
  <polygon class="st2" points="243.2 421.94 367.85 421.94 367.85 359.13 243.35 406.77 243.2 421.94"/>
  <polygon class="st2" points="385.16 421.94 448.24 421.94 448.24 321.55 386.03 353.25 385.16 421.94"/>
  <polygon class="st2" points="472.79 421.94 519.24 421.94 519.24 256.37 471.76 358.05 472.79 421.94"/>
  <polygon class="st3" points="526.71 107.37 473.58 152.23 471.76 228.26 491.3 214.83 530.5 136.65 526.71 107.37"/>
  <polygon class="st0" points="286.22 116.09 240.86 82.28 240.86 421.94 286.22 421.94 286.22 116.09"/>
  <polygon class="st1" points="448.24 321.55 386.03 353.25 385.91 302.14 448.11 269.13 448.24 321.55"/>
  <path class="st3" d="M366.77,360.41c-.91-9.68-4.32-18.33-8.1-26.87-5.93-13.4-12.77-26.27-21.52-38.07-4.48-6.04-8.91-12.11-13.37-18.17-.5-.68-1.25-1.29-1.5-2.05-2.74-8.64-10.17-13.23-16.31-18.9-4.65-4.29-9.55-8.3-14.39-12.36-1.11-.94-2.39-2.19-3.69-2.31-8.35-.77-14.11-6.72-20.96-10.39-14.61-7.84-29.73-14.32-45.48-19.51-13.28-4.37-26.85-7.18-40.72-8.57-3.45-.35-6.96-.04-10.51.55,7.67,3.55,15.54,6.73,22.97,10.73,15.17,8.19,30.26,16.54,45.06,25.39,9.54,5.7,18.46,12.44,27.73,18.61,2.07,1.38,2.41,2.81.89,4.65-1.71,2.08-1.24,3.33.84,5.05,9.12,7.56,18.1,15.29,26.98,23.13,1.68,1.49,2.64,1.41,4.25.15,3.87-3.02,3.87-2.89,7.35.56,7.16,7.08,14.53,13.94,21.56,21.15,5.36,5.49,10.5,11.23,15.43,17.12,6.73,8.03,13.2,16.27,19.72,24.47,1.4,1.76,2.51,3.76,3.75,5.65Z"/>
  <path class="st3" d="M322.81,262.88c2.34-2.64,4.46-5.03,6.79-7.66-3.85-3.42-7.63-6.81-11.44-10.17-4.78-4.21-9.63-8.33-14.34-12.61-1.3-1.17-2.01-1.46-3.21.13-1.6,2.14-3.51,4.05-5.44,6.24,9.28,8.08,18.36,15.98,27.65,24.07Z"/>
  <path class="st3" d="M282.96,302.38c2.34-2.64,4.46-5.03,6.79-7.66-3.85-3.42-7.63-6.81-11.44-10.17-4.78-4.21-9.63-8.33-14.34-12.61-1.3-1.17-2.01-1.46-3.21.13-1.6,2.14-3.51,4.05-5.44,6.24,9.28,8.08,18.36,15.98,27.65,24.07Z"/>
  <polygon class="st3" points="156.31 409.69 185.95 409.69 274.05 301.52 255.11 285.5 156.31 409.69"/>
  <polygon class="st3" points="598.82 39.53 528.89 99.85 561.53 99.85 471.76 286.7 471.76 365.71 586.83 121.74 604.78 138.88 598.82 39.53"/>
  <rect class="st3" x="249.25" y="441.21" width="352.1" height="83.26"/>
  <g>
    <path class="st4" d="M296.3,511.24l8.31-44.02h11.09l8.21,44.02h-8.97l-1.47-9.29h-6.47l-1.52,9.29h-9.18ZM307.88,496.13h4.67l-2.34-17.17-2.34,17.17Z"/>
    <path class="st4" d="M372.65,511.24l.76-44.02h10.43l4.84,25.6,5.22-25.6h10.05l.76,44.02h-6.9l-.81-29.29-5.11,29.29h-6.14l-5.43-29.51-.65,29.51h-7.01Z"/>
    <path class="st4" d="M455.58,511.24v-44.02h9.73v44.02h-9.73Z"/>
    <path class="st4" d="M516.33,511.24v-44.02h14.78c2.64,0,4.82.5,6.52,1.49,1.7,1,2.97,2.45,3.8,4.35.83,1.9,1.25,4.21,1.25,6.93,0,3.41-.56,6.01-1.68,7.8s-2.65,3.03-4.56,3.72c-1.92.69-4.08,1.03-6.47,1.03h-3.91v18.69h-9.73ZM526.06,485.75h3.26c1.2,0,2.1-.22,2.72-.65.61-.43,1.02-1.09,1.22-1.96.2-.87.3-1.97.3-3.32,0-1.12-.08-2.11-.24-2.96-.16-.85-.55-1.53-1.17-2.04-.62-.51-1.58-.76-2.88-.76h-3.21v11.68Z"/>
  </g>
</svg>