<?xml version="1.0" encoding="UTF-8"?>
<svg id="Layer_1" xmlns="http://www.w3.org/2000/svg" version="1.1" viewBox="0 0 841.89 595.28">
  <!-- Generator: Adobe Illustrator 29.6.1, SVG Export Plug-In . SVG Version: 2.1.1 Build 9)  -->
  <defs>
    <style>
      .st0 {
        fill: #2b2d2d;
      }

      .st1 {
        fill: #3a5e45;
      }

      .st2 {
        fill: #d0b063;
      }

      .st3 {
        fill: #7e312a;
      }

      .st4 {
        fill: #ddba69;
      }

      .st5 {
        fill: #581708;
      }
    </style>
  </defs>
  <polygon class="st1" points="754.52 263.82 787.34 207.78 787.34 388.14 754.52 388.14 754.52 263.82"/>
  <polygon class="st4" points="647.9 230.33 688.36 260.43 688.36 200.22 647.9 230.33"/>
  <polygon class="st4" points="670.78 248.77 553.74 161.68 552.43 141.17 680.58 235.6 670.78 248.77"/>
  <polygon class="st1" points="664.26 279.37 528.71 175.94 528.22 143.73 688.36 261.27 664.26 279.37"/>
  <polygon class="st3" points="529.64 388.14 619.33 388.14 619.33 342.94 529.75 377.22 529.64 388.14"/>
  <polygon class="st3" points="631.79 388.14 677.17 388.14 677.17 315.9 632.41 338.71 631.79 388.14"/>
  <polygon class="st3" points="694.84 388.14 728.26 388.14 728.26 269 694.1 342.16 694.84 388.14"/>
  <polygon class="st4" points="733.64 161.79 695.41 194.07 694.1 248.77 708.16 239.11 736.36 182.85 733.64 161.79"/>
  <polygon class="st1" points="560.59 168.06 527.95 143.73 527.95 388.14 560.59 388.14 560.59 168.06"/>
  <polygon class="st2" points="677.17 315.9 632.41 338.71 632.32 301.93 677.08 278.18 677.17 315.9"/>
  <path class="st4" d="M618.55,343.86c-.66-6.96-3.11-13.19-5.83-19.33-4.26-9.64-9.19-18.9-15.48-27.4-3.22-4.35-6.41-8.72-9.62-13.07-.36-.49-.9-.93-1.08-1.48-1.97-6.22-7.32-9.52-11.73-13.6-3.34-3.08-6.87-5.97-10.36-8.9-.8-.67-1.72-1.58-2.65-1.67-6.01-.56-10.15-4.83-15.08-7.48-10.51-5.64-21.39-10.31-32.72-14.04-9.56-3.15-19.32-5.16-29.3-6.17-2.48-.25-5.01-.03-7.56.39,5.52,2.56,11.18,4.84,16.53,7.72,10.91,5.89,21.78,11.9,32.42,18.27,6.86,4.1,13.28,8.95,19.95,13.39,1.49.99,1.73,2.02.64,3.34-1.23,1.49-.89,2.39.61,3.63,6.56,5.44,13.03,11,19.42,16.64,1.21,1.07,1.9,1.02,3.06.11,2.79-2.17,2.78-2.08,5.29.4,5.15,5.09,10.46,10.03,15.51,15.22,3.86,3.95,7.55,8.08,11.1,12.32,4.84,5.77,9.5,11.71,14.19,17.61,1.01,1.27,1.8,2.71,2.7,4.07Z"/>
  <path class="st4" d="M586.92,273.68c1.68-1.9,3.21-3.62,4.89-5.51-2.77-2.46-5.49-4.9-8.23-7.32-3.44-3.03-6.93-6-10.32-9.07-.93-.85-1.45-1.05-2.31.1-1.15,1.54-2.53,2.92-3.92,4.49,6.68,5.81,13.21,11.5,19.89,17.32Z"/>
  <path class="st4" d="M558.25,302.1c1.68-1.9,3.21-3.62,4.89-5.51-2.77-2.46-5.49-4.9-8.23-7.32-3.44-3.03-6.93-6-10.32-9.07-.93-.85-1.45-1.05-2.31.1-1.15,1.54-2.53,2.92-3.92,4.49,6.68,5.81,13.21,11.5,19.89,17.32Z"/>
  <polygon class="st4" points="467.11 379.32 488.44 379.32 551.83 301.49 538.21 289.96 467.11 379.32"/>
  <polygon class="st4" points="785.52 112.98 735.2 156.37 758.69 156.37 694.1 290.82 694.1 347.67 776.89 172.13 789.81 184.46 785.52 112.98"/>
  <rect class="st4" x="533.99" y="402" width="253.35" height="59.91"/>
  <g>
    <path class="st5" d="M567.84,452.39l5.98-31.67h7.98l5.9,31.67h-6.45l-1.06-6.69h-4.65l-1.1,6.69h-6.61ZM576.17,441.52h3.36l-1.68-12.36-1.68,12.36Z"/>
    <path class="st5" d="M622.78,452.39l.55-31.67h7.51l3.48,18.42,3.75-18.42h7.23l.55,31.67h-4.97l-.59-21.08-3.68,21.08h-4.42l-3.91-21.23-.47,21.23h-5.04Z"/>
    <path class="st5" d="M682.45,452.39v-31.67h7v31.67h-7Z"/>
    <path class="st5" d="M726.16,452.39v-31.67h10.64c1.9,0,3.47.36,4.69,1.08,1.22.72,2.14,1.76,2.74,3.13.6,1.37.9,3.03.9,4.99,0,2.45-.4,4.32-1.21,5.61s-1.9,2.18-3.28,2.68c-1.38.5-2.93.74-4.65.74h-2.82v13.45h-7ZM733.16,434.05h2.35c.86,0,1.51-.16,1.96-.47.44-.31.74-.78.88-1.41.14-.63.21-1.42.21-2.39,0-.81-.06-1.52-.18-2.13-.12-.61-.4-1.1-.84-1.47-.44-.37-1.13-.55-2.07-.55h-2.31v8.41Z"/>
  </g>
  <rect class="st1" x="62.71" y="456.1" width="401.32" height="6.61"/>
  <g>
    <path class="st3" d="M63.39,391.2l5.7-35.18h7.6l5.62,35.18h-6.14l-1.01-7.43h-4.43l-1.04,7.43h-6.29ZM71.32,379.12h3.2l-1.6-13.72-1.6,13.72Z"/>
    <path class="st0" d="M103.98,391.2v-35.18h8.3c2.04,0,3.8.26,5.29.78,1.49.52,2.65,1.46,3.48,2.8.83,1.35,1.25,3.25,1.25,5.71,0,1.45-.1,2.74-.3,3.87s-.56,2.11-1.1,2.93c-.53.83-1.3,1.51-2.29,2.06l4.13,17.03h-6.89l-3.31-15.77h-1.9v15.77h-6.67ZM110.64,370.96h1.86c.94,0,1.68-.2,2.2-.59.52-.39.89-.96,1.1-1.69.21-.74.32-1.63.32-2.67,0-1.5-.24-2.68-.71-3.52-.47-.84-1.34-1.26-2.61-1.26h-2.16v9.73Z"/>
    <path class="st0" d="M143.48,391.2l5.7-35.18h7.6l5.62,35.18h-6.14l-1.01-7.43h-4.43l-1.04,7.43h-6.29ZM151.41,379.12h3.2l-1.6-13.72-1.6,13.72Z"/>
    <path class="st0" d="M184.07,391.2v-35.18h7.86c1.29,0,2.51.12,3.67.35,1.15.23,2.18.67,3.07,1.32.89.65,1.59,1.58,2.1,2.78.51,1.2.76,2.79.76,4.76,0,1.42-.18,2.61-.54,3.58-.36.97-.87,1.75-1.53,2.32-.66.58-1.45.97-2.36,1.17,1.17.17,2.15.62,2.94,1.33.79.71,1.4,1.66,1.81,2.84s.61,2.62.61,4.3c0,1.82-.2,3.4-.61,4.71s-1,2.4-1.77,3.24c-.77.84-1.72,1.46-2.85,1.87-1.13.41-2.43.61-3.89.61h-9.27ZM190.73,370.09h1.3c1.02,0,1.79-.18,2.31-.54.52-.36.87-.89,1.06-1.58.19-.7.28-1.53.28-2.52,0-.93-.14-1.7-.43-2.32-.29-.62-.71-1.09-1.27-1.41-.56-.32-1.26-.48-2.1-.48h-1.15v8.86ZM190.73,385.77h1.41c1.46,0,2.48-.43,3.03-1.3.56-.87.84-2.14.84-3.82,0-1.33-.12-2.39-.37-3.17-.25-.78-.66-1.35-1.23-1.72-.57-.36-1.34-.54-2.31-.54h-1.38v10.55Z"/>
    <path class="st3" d="M252.61,391.2l.52-35.18h7.15l3.31,20.46,3.57-20.46h6.89l.52,35.18h-4.73l-.56-23.41-3.5,23.41h-4.21l-3.72-23.58-.45,23.58h-4.8Z"/>
    <path class="st0" d="M297.59,391.2v-35.18h6.66v35.18h-6.66Z"/>
    <path class="st0" d="M327.38,391.2v-35.18h4.69l6.18,16.94v-16.94h5.51v35.18h-4.51l-6.18-18.24v18.24h-5.7Z"/>
    <path class="st0" d="M366.92,391.2v-35.18h6.66v35.18h-6.66Z"/>
    <path class="st0" d="M396.71,391.2v-35.18h4.69l6.18,16.94v-16.94h5.51v35.18h-4.51l-6.18-18.24v18.24h-5.7Z"/>
    <path class="st0" d="M444.07,391.72c-2.08,0-3.73-.51-4.93-1.52-1.21-1.01-2.06-2.44-2.57-4.28-.51-1.84-.76-3.96-.76-6.36v-11.81c0-2.49.27-4.65.82-6.47s1.48-3.24,2.81-4.24c1.33-1,3.13-1.5,5.42-1.5s3.99.43,5.27,1.3c1.28.87,2.19,2.07,2.74,3.61.54,1.53.82,3.33.82,5.38v2.26h-6.52v-2.87c0-.75-.04-1.45-.13-2.08-.09-.64-.29-1.15-.6-1.54-.31-.39-.81-.59-1.51-.59s-1.24.22-1.56.67c-.32.45-.53,1.01-.61,1.67-.09.67-.13,1.36-.13,2.08v16.29c0,.78.07,1.51.2,2.19.14.68.38,1.23.75,1.65.36.42.88.63,1.54.63s1.23-.22,1.6-.65c.37-.43.63-1,.78-1.69.15-.7.22-1.43.22-2.22v-4.13h-2.72v-4.56h8.71v18.24h-4.39l-.37-2.91c-.4.98-.98,1.8-1.75,2.45s-1.81.98-3.13.98Z"/>
  </g>
  <g>
    <path class="st0" d="M63.25,224.29h5.42v6.23c0,2.1.41,3.79,1.16,4.83.81,1.22,2.04,2.04,3.61,2.45.82.17,2.27.23,4.37.23h25.04v-18.75h5.42v24.22h-32.72c-4.37,0-7.74-1.69-10.19-5.01-.93-1.34-1.63-2.79-1.86-4.25-.17-.93-.23-2.45-.23-4.72v-5.24ZM83.17,207.64c.87,0,1.63.35,2.39.99.64.52.93,1.28.93,2.1s-.29,1.57-.93,2.15c-.64.64-1.46.99-2.33.99-.99,0-1.75-.35-2.39-.99-.58-.58-.87-1.34-.87-2.15,0-.93.29-1.63.87-2.21.64-.52,1.4-.87,2.33-.87ZM90.74,207.64c.93,0,1.69.35,2.33.87.64.58.99,1.28.99,2.21,0,.82-.35,1.57-.99,2.15-.64.64-1.4.99-2.27.99-.93,0-1.69-.35-2.33-.99-.64-.58-.93-1.34-.93-2.15s.29-1.57.93-2.1c.64-.64,1.4-.99,2.27-.99Z"/>
    <path class="st0" d="M111.76,207.64h5.42v35.87h-5.42v-35.87Z"/>
    <path class="st0" d="M119.85,254.39c1.98-.82,3.44-1.75,4.43-2.74,2.04-1.98,3.03-5.36,3.03-10.07v-22.3h5.47v18.75h.7v5.47h-.58v.35c0,3.49-.76,6.46-2.33,8.97-.99,1.69-2.62,3.26-4.66,4.6-2.1,1.34-4.08,2.15-6.06,2.45v-5.47Z"/>
    <path class="st0" d="M133.07,238.03h21.14v5.47h-21.14v-5.47Z"/>
    <path class="st0" d="M153.97,243.51v-5.47h10.48v-18.75h5.47v18.75h6.23v-18.75h5.42v18.75h6v-18.75h5.47v24.22h-39.07ZM175.11,207.64c.99,0,1.75.35,2.39.87.64.58.93,1.28.93,2.21,0,.82-.29,1.57-.93,2.15-.64.64-1.4.99-2.33.99-.87,0-1.69-.35-2.33-.99-.64-.58-.93-1.34-.93-2.15s.29-1.57.93-2.1c.64-.64,1.46-.99,2.27-.99ZM178.95,201.81c.82,0,1.46.23,2.04.76.58.52.87,1.16.87,1.92,0,.7-.29,1.34-.87,1.92-.58.52-1.22.76-1.98.76s-1.4-.23-1.98-.76c-.58-.58-.81-1.22-.81-1.92,0-.76.23-1.4.76-1.92.58-.52,1.22-.76,1.98-.76ZM182.73,207.64c.93,0,1.75.35,2.39.87.64.58.93,1.28.93,2.21,0,.82-.29,1.57-.93,2.15-.64.64-1.46.99-2.33.99s-1.69-.35-2.33-.99c-.64-.58-.93-1.34-.93-2.15,0-.93.29-1.63.93-2.21.58-.52,1.4-.87,2.27-.87Z"/>
    <path class="st0" d="M217.44,238.03h.7v5.47h-.7c-.12,2.74-.47,5.01-1.11,6.81-1.16,3.55-4.42,6.93-7.92,8.27-2.39.87-5.82,1.34-10.31,1.34h-1.57v-5.42h3.9c3.96,0,6.93-.99,8.85-2.97,1.57-1.57,2.39-4.25,2.56-8.04h-1.34c-2.27,0-3.84-.06-4.72-.23-1.57-.29-3.03-.93-4.37-1.92-3.32-2.39-4.95-5.76-4.95-10.13,0-3.49,1.22-6.4,3.73-8.79,2.33-2.15,5.65-3.26,9.96-3.26h7.28v18.87ZM211.96,224.64h-1.86c-5.59,0-8.15,2.91-8.15,6.7,0,2.39.87,4.25,2.68,5.53,1.11.76,2.85,1.17,5.36,1.17h1.98v-13.39ZM204.45,213.46c-.35-.64-.52-1.22-.52-1.86,0-2.33,1.81-4.13,4.31-4.13h2.39v2.45h-2.04c-1.34,0-2.04.58-2.04,1.8s.76,1.75,2.21,1.75h2.91v2.39h-9.32v-2.39h2.1Z"/>
    <path class="st0" d="M217.73,238.03h21.14v5.47h-21.14v-5.47Z"/>
    <path class="st0" d="M238.63,238.03h21.14v5.47h-21.14v-5.47Z"/>
    <path class="st0" d="M287.13,238.03h6.93v-30.4h5.42v35.87h-15.02c-2.39,2.74-5.07,4.19-8.15,4.19s-5.82-1.46-8.04-4.19h-8.73v-5.47h6c-.35-1.46-.52-2.91-.52-4.37,0-4.02,1.05-7.4,3.32-10.13,2.15-2.79,4.83-4.19,7.98-4.19s5.82,1.4,8.09,4.19c2.21,2.74,3.32,6.11,3.32,10.13,0,1.28-.17,2.74-.58,4.37ZM282.3,233.72c0-2.56-.58-4.77-1.75-6.46-1.16-1.8-2.56-2.74-4.31-2.74s-3.09.93-4.19,2.68c-1.22,1.69-1.81,3.9-1.81,6.4s.58,4.66,1.81,6.35c1.11,1.81,2.5,2.74,4.19,2.74s3.03-.93,4.25-2.74c1.22-1.69,1.81-3.84,1.81-6.23Z"/>
    <path class="st0" d="M302.97,207.64h5.42v35.87h-5.42v-35.87Z"/>
    <path class="st0" d="M343.2,238.03v5.47h-5.36c-3.67,0-6.11-.12-7.16-.29-1.16-.23-2.39-.87-3.78-1.81-3.32-2.39-5.01-5.76-5.01-10.19,0-3.38,1.22-6.23,3.67-8.62,2.15-2.1,4.66-3.2,7.4-3.26,1.69-.06,3.26-.06,5.01-.06h4.66v18.75h.58ZM328.36,207.64c.87,0,1.69.35,2.33.87.64.58.93,1.28.93,2.21,0,.82-.29,1.57-.87,2.15-.64.64-1.46.99-2.39.99-.87,0-1.69-.35-2.33-.99-.64-.58-.93-1.34-.93-2.15,0-.93.29-1.63.93-2.21.64-.52,1.46-.87,2.33-.87ZM337.21,238.03v-13.28h-2.56c-2.21,0-3.96.64-5.24,1.86-1.4,1.22-1.98,2.79-1.98,4.77,0,2.91,1.16,4.95,3.61,6.11.76.35,2.04.52,3.73.52h2.45ZM335.93,207.64c.93,0,1.69.35,2.33.87.64.58.99,1.28.99,2.21,0,.82-.35,1.57-.99,2.15-.64.64-1.4.99-2.27.99-.93,0-1.69-.35-2.33-.99-.64-.58-.93-1.34-.93-2.15s.29-1.57.93-2.1c.64-.64,1.4-.99,2.27-.99Z"/>
    <path class="st0" d="M342.91,238.03h21.14v5.47h-21.14v-5.47Z"/>
    <path class="st0" d="M363.82,238.03h21.14v5.47h-21.14v-5.47Z"/>
    <path class="st0" d="M384.72,238.03h6.17v-18.75h5.42v24.22h-11.59v-5.47ZM393.45,248.75c.93,0,1.69.35,2.33.93.64.58.99,1.28.99,2.15,0,.81-.35,1.63-.99,2.15-.64.64-1.4.99-2.27.99-.93,0-1.69-.35-2.33-.99-.64-.52-.93-1.34-.93-2.15,0-.87.29-1.57.93-2.15.58-.58,1.34-.93,2.27-.93Z"/>
    <path class="st0" d="M399.8,207.64h5.42v35.87h-5.42v-35.87Z"/>
    <path class="st0" d="M429.49,238.03h.7v5.47h-.7c-.12,2.74-.52,5.01-1.05,6.81-.64,1.69-1.69,3.38-3.14,4.89-1.51,1.57-3.03,2.62-4.77,3.26-2.33.93-5.82,1.4-10.25,1.4h-1.57v-5.42h3.9c3.9,0,6.87-.93,8.79-2.91,1.51-1.63,2.33-4.25,2.5-8.04h-1.34c-2.21,0-3.73-.06-4.66-.23-1.57-.29-3.03-.93-4.37-1.86-3.26-2.39-4.89-5.76-4.89-10.13,0-3.44,1.22-6.35,3.67-8.73,2.33-2.15,5.65-3.26,9.96-3.26h7.22v18.75ZM424.08,224.76h-1.86c-2.74,0-4.83.64-6.17,1.92-1.34,1.28-1.98,2.85-1.98,4.72,0,2.39.87,4.25,2.68,5.53,1.11.76,2.85,1.11,5.36,1.11h1.98v-13.28Z"/>
    <path class="st0" d="M429.79,238.03h21.14v5.47h-21.14v-5.47Z"/>
    <path class="st0" d="M450.69,238.03h6.17v-18.75h5.42v24.22h-11.59v-5.47ZM459.42,248.75c.93,0,1.69.35,2.33.93.64.58.99,1.28.99,2.15,0,.81-.35,1.63-.99,2.15-.64.64-1.4.99-2.27.99-.93,0-1.69-.35-2.33-.99-.64-.52-.93-1.34-.93-2.15,0-.87.29-1.57.93-2.15.58-.58,1.34-.93,2.27-.93Z"/>
  </g>
  <g>
    <path class="st0" d="M90.38,312.21v7.41h-7.26c-4.97,0-8.28-.16-9.7-.39-1.58-.32-3.23-1.18-5.13-2.45-4.5-3.23-6.78-7.81-6.78-13.8,0-4.57,1.66-8.44,4.97-11.67,2.92-2.84,6.31-4.34,10.02-4.42,2.29-.08,4.42-.08,6.78-.08h6.31v25.4h.79ZM70.27,271.03c1.18,0,2.29.47,3.15,1.18.87.79,1.26,1.73,1.26,3,0,1.1-.39,2.13-1.18,2.92-.87.87-1.97,1.34-3.23,1.34-1.18,0-2.29-.47-3.15-1.34-.87-.79-1.26-1.81-1.26-2.92,0-1.26.39-2.21,1.26-3,.87-.71,1.97-1.18,3.15-1.18ZM82.25,312.21v-17.98h-3.47c-3,0-5.36.87-7.1,2.52-1.89,1.66-2.68,3.79-2.68,6.47,0,3.94,1.58,6.7,4.89,8.28,1.03.47,2.76.71,5.05.71h3.31ZM80.52,271.03c1.26,0,2.29.47,3.15,1.18.87.79,1.34,1.73,1.34,3,0,1.1-.47,2.13-1.34,2.92-.87.87-1.89,1.34-3.08,1.34-1.26,0-2.29-.47-3.16-1.34-.87-.79-1.26-1.81-1.26-2.92s.39-2.13,1.26-2.84c.87-.87,1.89-1.34,3.08-1.34Z"/>
    <path class="st0" d="M89.99,312.21h17.43v-25.4h7.41v25.4h.87v7.41h-25.71v-7.41ZM100.55,326.72c1.34,0,2.37.47,3.23,1.26s1.26,1.74,1.26,2.92c0,1.1-.39,2.21-1.26,2.92-.87.87-1.89,1.34-3.15,1.34-1.18,0-2.21-.47-3.08-1.34-.87-.71-1.34-1.81-1.34-2.92,0-1.18.47-2.13,1.34-2.92s1.89-1.26,3-1.26ZM110.89,326.72c1.34,0,2.37.47,3.23,1.26.87.79,1.26,1.74,1.26,2.92,0,1.1-.39,2.21-1.26,2.92-.87.87-1.89,1.34-3.16,1.34-1.18,0-2.21-.47-3.08-1.34-.87-.71-1.34-1.81-1.34-2.92,0-1.18.47-2.13,1.34-2.92.79-.79,1.81-1.26,3-1.26Z"/>
    <path class="st0" d="M115.23,312.21h8.36v-25.4h7.34v32.81h-15.7v-7.41ZM127.06,326.72c1.26,0,2.29.47,3.15,1.26s1.34,1.74,1.34,2.92c0,1.1-.47,2.21-1.34,2.92-.87.87-1.89,1.34-3.08,1.34-1.26,0-2.29-.47-3.15-1.34-.87-.71-1.26-1.81-1.26-2.92,0-1.18.39-2.13,1.26-2.92.79-.79,1.81-1.26,3.08-1.26Z"/>
    <path class="st0" d="M134.55,334.37c2.68-1.1,4.65-2.37,5.99-3.71,2.76-2.68,4.1-7.26,4.1-13.64v-30.21h7.41v25.4h.95v7.41h-.79v.47c0,4.73-1.03,8.75-3.16,12.15-1.34,2.29-3.55,4.42-6.31,6.23-2.84,1.81-5.52,2.92-8.2,3.31v-7.41Z"/>
    <path class="st0" d="M152.46,319.62v-7.41h14.2l-6.15-6.15c-.16-1.03-.16-2.29-.16-3.86,0-4.26,1.5-7.89,4.5-10.88,3-3,6.7-4.5,11.12-4.5s8.2,1.5,11.12,4.42c3,3,4.5,6.63,4.5,10.88,0,.55,0,1.89-.16,3.94l-6.23,6.15h7.26v7.41h-13.88c-1.03,0-1.89-.24-2.68-.87-.71.63-1.66.87-2.68.87h-20.74ZM167.52,302.35l8.36,8.36,8.28-8.36c-.32-2.76-1.26-4.73-2.76-6.15-1.34-1.26-3.23-1.97-5.52-1.97s-4.18.71-5.52,1.97c-1.5,1.42-2.45,3.39-2.84,6.15Z"/>
    <path class="st0" d="M191.98,312.21h8.12v-41.17h7.41v48.59h-15.54v-7.41Z"/>
    <path class="st0" d="M212.25,271.03h7.33v48.59h-7.33v-48.59Z"/>
    <path class="st0" d="M266.75,312.21v7.41h-7.26c-4.97,0-8.28-.16-9.7-.39-1.58-.32-3.23-1.18-5.13-2.45-4.5-3.23-6.78-7.81-6.78-13.8,0-4.57,1.66-8.44,4.97-11.67,2.92-2.84,6.31-4.34,10.02-4.42,2.29-.08,4.42-.08,6.78-.08h6.31v25.4h.79ZM246.64,271.03c1.18,0,2.29.47,3.15,1.18.87.79,1.26,1.73,1.26,3,0,1.1-.39,2.13-1.18,2.92-.87.87-1.97,1.34-3.23,1.34-1.18,0-2.29-.47-3.15-1.34-.87-.79-1.26-1.81-1.26-2.92,0-1.26.39-2.21,1.26-3,.87-.71,1.97-1.18,3.15-1.18ZM258.63,312.21v-17.98h-3.47c-3,0-5.36.87-7.1,2.52-1.89,1.66-2.68,3.79-2.68,6.47,0,3.94,1.58,6.7,4.89,8.28,1.03.47,2.76.71,5.05.71h3.31ZM256.89,271.03c1.26,0,2.29.47,3.15,1.18.87.79,1.34,1.73,1.34,3,0,1.1-.47,2.13-1.34,2.92-.87.87-1.89,1.34-3.08,1.34-1.26,0-2.29-.47-3.16-1.34-.87-.79-1.26-1.81-1.26-2.92s.39-2.13,1.26-2.84c.87-.87,1.89-1.34,3.08-1.34Z"/>
    <path class="st0" d="M266.36,312.21h17.43v-25.4h7.41v25.4h.87v7.41h-25.71v-7.41ZM276.93,326.72c1.34,0,2.37.47,3.23,1.26s1.26,1.74,1.26,2.92c0,1.1-.39,2.21-1.26,2.92-.87.87-1.89,1.34-3.15,1.34-1.18,0-2.21-.47-3.08-1.34-.87-.71-1.34-1.81-1.34-2.92,0-1.18.47-2.13,1.34-2.92s1.89-1.26,3-1.26ZM287.26,326.72c1.34,0,2.37.47,3.23,1.26.87.79,1.26,1.74,1.26,2.92,0,1.1-.39,2.21-1.26,2.92-.87.87-1.89,1.34-3.16,1.34-1.18,0-2.21-.47-3.08-1.34-.87-.71-1.34-1.81-1.34-2.92,0-1.18.47-2.13,1.34-2.92.79-.79,1.81-1.26,3-1.26Z"/>
    <path class="st0" d="M291.6,312.21h8.36v-25.4h7.34v25.4h.95v7.41h-16.64v-7.41ZM303.43,271.03c1.26,0,2.29.47,3.15,1.18.87.79,1.34,1.89,1.34,3s-.47,2.13-1.34,3c-.87.79-1.89,1.26-3.08,1.26-1.26,0-2.29-.47-3.15-1.26-.87-.87-1.26-1.89-1.26-3s.39-2.13,1.26-2.84c.87-.87,1.89-1.34,3.08-1.34Z"/>
    <path class="st0" d="M307.69,312.21h17.43v-25.4h7.41v32.81h-24.84v-7.41ZM318.34,326.72c1.26,0,2.29.47,3.15,1.26s1.26,1.74,1.26,2.92c0,1.1-.39,2.21-1.26,2.92-.79.87-1.81,1.34-3.15,1.34-1.18,0-2.21-.47-3.08-1.34-.87-.71-1.34-1.81-1.34-2.92,0-1.18.47-2.13,1.34-2.92s1.89-1.26,3.08-1.26ZM328.59,326.72c1.34,0,2.37.47,3.23,1.26.87.79,1.26,1.74,1.26,2.92,0,1.1-.39,2.21-1.26,2.92-.87.87-1.89,1.34-3.16,1.34-1.18,0-2.21-.47-3.08-1.34-.87-.71-1.34-1.81-1.34-2.92,0-1.18.47-2.13,1.34-2.92.79-.79,1.81-1.26,3-1.26Z"/>
    <path class="st0" d="M365.74,312.21h4.02v7.41h-32.5v-7.41h13.33c3,0,5.13-.47,6.62-1.5,2.37-1.81,3.63-4.26,3.63-7.49,0-2.68-.87-4.81-2.68-6.47-1.81-1.66-4.1-2.52-6.94-2.52h-9.07v-7.41h7.57c5.84,0,10.33,1.5,13.49,4.42,3.47,3.31,5.21,7.34,5.21,12.07,0,2.68-.87,5.68-2.68,8.91Z"/>
    <path class="st0" d="M369.29,319.62v-7.41h14.2l-6.15-6.15c-.16-1.03-.16-2.29-.16-3.86,0-4.26,1.5-7.89,4.5-10.88,3-3,6.7-4.5,11.12-4.5s8.2,1.5,11.12,4.42c3,3,4.5,6.63,4.5,10.88,0,.55,0,1.89-.16,3.94l-6.23,6.15h7.26v7.41h-13.88c-1.03,0-1.89-.24-2.68-.87-.71.63-1.66.87-2.68.87h-20.74ZM384.36,302.35l8.36,8.36,8.28-8.36c-.32-2.76-1.26-4.73-2.76-6.15-1.34-1.26-3.23-1.97-5.52-1.97s-4.18.71-5.52,1.97c-1.5,1.42-2.45,3.39-2.84,6.15Z"/>
    <path class="st0" d="M408.81,312.21h17.43v-25.4h7.41v25.4h.87v7.41h-25.71v-7.41ZM419.54,271.03c1.34,0,2.37.47,3.23,1.18.87.79,1.34,1.73,1.34,3,0,1.1-.47,2.13-1.34,2.92-.87.87-1.89,1.34-3.15,1.34-1.18,0-2.21-.47-3.08-1.34-.87-.79-1.34-1.81-1.34-2.92,0-1.26.47-2.21,1.34-3,.79-.71,1.81-1.18,3-1.18ZM429.87,271.03c1.26,0,2.29.47,3.23,1.34.87.71,1.26,1.73,1.26,2.84s-.39,2.13-1.26,2.92c-.87.87-1.89,1.34-3.15,1.34-1.18,0-2.29-.47-3.08-1.34-.87-.79-1.34-1.81-1.34-2.92,0-1.26.47-2.21,1.34-3,.79-.71,1.81-1.18,3-1.18Z"/>
    <path class="st0" d="M434.05,312.21h8.12v-41.17h7.41v48.59h-15.54v-7.41Z"/>
    <path class="st0" d="M454.32,271.03h7.33v48.59h-7.33v-48.59Z"/>
  </g>
  <g>
    <path class="st3" d="M62.52,446.19v-35.18h6.66v35.18h-6.66Z"/>
    <path class="st0" d="M79.27,446.19v-35.18h4.69l6.18,16.94v-16.94h5.51v35.18h-4.51l-6.18-18.24v18.24h-5.7Z"/>
    <path class="st0" d="M105.75,446.19v-35.18h7.63c2.63,0,4.68.38,6.14,1.15,1.46.77,2.49,1.97,3.09,3.6.6,1.64.89,3.76.89,6.36v12.77c0,2.64-.3,4.79-.89,6.45-.6,1.67-1.62,2.89-3.07,3.67-1.45.78-3.48,1.17-6.09,1.17h-7.71ZM112.41,440.8h1.04c1.02,0,1.75-.17,2.2-.52.45-.35.73-.87.84-1.56.11-.69.17-1.56.17-2.61v-15.33c0-1.04-.07-1.88-.21-2.52-.14-.64-.43-1.1-.88-1.39-.45-.29-1.17-.43-2.16-.43h-1.01v24.37Z"/>
    <path class="st0" d="M133.19,446.19v-35.18h6.66v35.18h-6.66Z"/>
    <path class="st0" d="M158.58,446.71c-2.28,0-4.09-.49-5.42-1.46-1.33-.97-2.27-2.33-2.81-4.08-.55-1.75-.82-3.81-.82-6.19v-12.68c0-2.43.27-4.52.82-6.28.55-1.75,1.48-3.11,2.81-4.06,1.33-.96,3.13-1.43,5.42-1.43s3.98.43,5.23,1.28c1.25.85,2.14,2.05,2.66,3.58.52,1.54.78,3.3.78,5.3v3.04h-6.52v-3.52c0-.7-.03-1.36-.09-2-.06-.64-.24-1.17-.54-1.58s-.81-.63-1.53-.63-1.21.22-1.54.65c-.34.43-.55.98-.63,1.63s-.13,1.34-.13,2.06v16.55c0,.78.06,1.5.17,2.15.11.65.33,1.17.67,1.56.34.39.83.59,1.47.59.69,0,1.19-.21,1.49-.63.3-.42.48-.96.56-1.63.07-.67.11-1.35.11-2.04v-3.69h6.52v3.04c0,2-.25,3.79-.76,5.36s-1.39,2.82-2.64,3.74-3.01,1.37-5.27,1.37Z"/>
    <path class="st0" d="M175.04,446.19l5.7-35.18h7.6l5.62,35.18h-6.14l-1.01-7.43h-4.43l-1.04,7.43h-6.29ZM182.97,434.11h3.2l-1.6-13.72-1.6,13.72Z"/>
    <path class="st0" d="M203.63,446.19v-29.4h-4.54v-5.78h15.75v5.78h-4.5v29.4h-6.7Z"/>
    <path class="st0" d="M231.41,446.71c-2.26,0-4.05-.46-5.36-1.39-1.32-.93-2.26-2.26-2.83-4-.57-1.74-.86-3.81-.86-6.21v-13.07c0-2.43.29-4.5.86-6.21.57-1.71,1.51-3.02,2.83-3.93,1.32-.91,3.1-1.37,5.36-1.37s4.09.46,5.42,1.37c1.33.91,2.28,2.22,2.85,3.93.57,1.71.86,3.78.86,6.21v13.07c0,2.4-.29,4.47-.86,6.21-.57,1.74-1.52,3.07-2.85,4-1.33.93-3.13,1.39-5.42,1.39ZM231.41,441.19c.69,0,1.2-.2,1.53-.61.32-.41.53-.93.63-1.56.1-.64.15-1.29.15-1.96v-16.94c0-.7-.05-1.35-.15-1.98-.1-.62-.31-1.14-.63-1.54-.32-.4-.83-.61-1.53-.61-.65,0-1.13.2-1.45.61-.32.41-.53.92-.63,1.54-.1.62-.15,1.28-.15,1.98v16.94c0,.67.04,1.32.13,1.96.09.64.29,1.16.6,1.56.31.41.81.61,1.51.61Z"/>
    <path class="st0" d="M250.18,446.19v-35.18h8.3c2.04,0,3.8.26,5.29.78,1.49.52,2.65,1.46,3.48,2.8.83,1.35,1.25,3.25,1.25,5.71,0,1.45-.1,2.74-.3,3.87s-.56,2.11-1.1,2.93c-.53.83-1.3,1.51-2.29,2.06l4.13,17.03h-6.89l-3.31-15.77h-1.9v15.77h-6.67ZM256.84,425.95h1.86c.94,0,1.68-.2,2.2-.59.52-.39.89-.96,1.1-1.69.21-.74.32-1.63.32-2.67,0-1.5-.24-2.68-.71-3.52-.47-.84-1.34-1.26-2.61-1.26h-2.16v9.73Z"/>
    <path class="st0" d="M285.96,446.71c-1.89,0-3.46-.39-4.73-1.17-1.27-.78-2.22-1.99-2.87-3.63-.65-1.64-1.01-3.76-1.08-6.36l5.7-1c.02,1.51.14,2.72.35,3.65.21.93.51,1.59.89,2,.38.41.85.61,1.4.61.69,0,1.15-.27,1.36-.83.21-.55.32-1.13.32-1.74,0-1.45-.3-2.67-.89-3.67s-1.4-2-2.42-3.02l-2.61-2.65c-1.14-1.13-2.1-2.41-2.89-3.84s-1.17-3.21-1.17-5.32c0-2.98.76-5.26,2.27-6.84s3.57-2.37,6.18-2.37c1.61,0,2.91.32,3.89.96.98.64,1.73,1.47,2.23,2.5.51,1.03.86,2.11,1.04,3.26.19,1.14.29,2.24.32,3.28l-5.73.83c-.03-1.04-.08-1.95-.17-2.71-.09-.77-.27-1.36-.54-1.78-.27-.42-.7-.63-1.27-.63-.62,0-1.07.3-1.36.91-.29.61-.43,1.22-.43,1.82,0,1.3.27,2.37.8,3.19s1.23,1.69,2.1,2.58l2.49,2.56c1.32,1.3,2.43,2.78,3.33,4.43.91,1.65,1.36,3.69,1.36,6.12,0,1.65-.32,3.15-.97,4.5s-1.56,2.41-2.74,3.19c-1.18.78-2.58,1.17-4.19,1.17Z"/>
    <path class="st3" d="M317.79,446.19v-35.18h10.13c1.81,0,3.3.4,4.47,1.19,1.17.8,2.04,1.96,2.61,3.47.57,1.52.86,3.37.86,5.54,0,2.72-.39,4.8-1.15,6.23-.77,1.43-1.81,2.43-3.13,2.98-1.32.55-2.79.83-4.43.83h-2.68v14.94h-6.67ZM324.46,425.82h2.23c.82,0,1.44-.17,1.86-.52.42-.35.7-.87.84-1.56.14-.69.2-1.58.2-2.65,0-.9-.06-1.69-.17-2.37-.11-.68-.38-1.22-.8-1.63-.42-.41-1.08-.61-1.97-.61h-2.2v9.34Z"/>
    <path class="st0" d="M353.27,446.71c-2.26,0-4.05-.46-5.36-1.39-1.32-.93-2.26-2.26-2.83-4-.57-1.74-.86-3.81-.86-6.21v-13.07c0-2.43.29-4.5.86-6.21.57-1.71,1.51-3.02,2.83-3.93,1.32-.91,3.1-1.37,5.36-1.37s4.09.46,5.42,1.37c1.33.91,2.28,2.22,2.85,3.93.57,1.71.86,3.78.86,6.21v13.07c0,2.4-.29,4.47-.86,6.21-.57,1.74-1.52,3.07-2.85,4-1.33.93-3.13,1.39-5.42,1.39ZM353.27,441.19c.69,0,1.2-.2,1.53-.61.32-.41.53-.93.63-1.56.1-.64.15-1.29.15-1.96v-16.94c0-.7-.05-1.35-.15-1.98-.1-.62-.31-1.14-.63-1.54-.32-.4-.83-.61-1.53-.61-.65,0-1.13.2-1.45.61-.32.41-.53.92-.63,1.54-.1.62-.15,1.28-.15,1.98v16.94c0,.67.04,1.32.13,1.96.09.64.29,1.16.6,1.56.31.41.81.61,1.51.61Z"/>
    <path class="st0" d="M372.04,446.19v-35.18h8.3c2.04,0,3.8.26,5.29.78,1.49.52,2.65,1.46,3.48,2.8.83,1.35,1.25,3.25,1.25,5.71,0,1.45-.1,2.74-.3,3.87s-.56,2.11-1.1,2.93c-.53.83-1.3,1.51-2.29,2.06l4.13,17.03h-6.89l-3.31-15.77h-1.9v15.77h-6.67ZM378.71,425.95h1.86c.94,0,1.68-.2,2.2-.59.52-.39.89-.96,1.1-1.69.21-.74.32-1.63.32-2.67,0-1.5-.24-2.68-.71-3.52-.47-.84-1.34-1.26-2.61-1.26h-2.16v9.73Z"/>
    <path class="st0" d="M402.27,446.19v-29.4h-4.54v-5.78h15.75v5.78h-4.5v29.4h-6.7Z"/>
    <path class="st0" d="M418.58,446.19l5.7-35.18h7.6l5.62,35.18h-6.14l-1-7.43h-4.43l-1.04,7.43h-6.29ZM426.51,434.11h3.2l-1.6-13.72-1.6,13.72Z"/>
    <path class="st0" d="M446.14,446.19v-35.18h6.66v29.93h6.93v5.25h-13.59Z"/>
  </g>
</svg>